<svg xmlns="http://www.w3.org/2000/svg" xmlns:xlink="http://www.w3.org/1999/xlink" width="500" zoomAndPan="magnify" viewBox="0 0 375 374.999991" height="500" preserveAspectRatio="xMidYMid meet" version="1.2"><defs><clipPath id="291c0d8908"><path d="M 81.585938 53.226562 L 319.335938 53.226562 L 319.335938 290.976562 L 81.585938 290.976562 Z M 81.585938 53.226562 "/></clipPath></defs><g id="87c67a9694"><path style=" stroke:none;fill-rule:nonzero;fill:#000000;fill-opacity:1;" d="M 99.382812 170.863281 C 100.558594 194.148438 110.554688 216.839844 129.257812 233.71875 C 147.90625 250.59375 171.476562 258.246094 194.777344 257.078125 C 218.082031 255.882812 240.769531 245.902344 257.664062 227.246094 C 274.519531 208.5625 282.140625 184.996094 281 161.664062 C 279.808594 138.394531 269.820312 115.707031 251.15625 98.84375 C 232.484375 81.980469 208.90625 74.3125 185.613281 75.496094 C 162.292969 76.660156 139.628906 86.640625 122.746094 105.3125 C 105.871094 123.96875 98.25 147.5625 99.382812 170.863281 Z M 7.828125 336.429688 L 90.398438 245.0625 C 73.636719 223.875 64.390625 198.472656 63.078125 172.71875 C 61.394531 140.234375 72.242188 106.953125 95.75 80.921875 C 119.285156 54.890625 151.324219 40.789062 183.78125 39.164062 C 216.257812 37.492188 249.546875 48.316406 275.523438 71.84375 C 301.59375 95.394531 315.675781 127.386719 317.300781 159.84375 C 319.003906 192.3125 308.164062 225.59375 284.644531 251.621094 C 261.105469 277.652344 229.074219 291.769531 196.601562 293.394531 C 170.855469 294.714844 144.617188 288.046875 121.851562 273.5 L 39.3125 364.851562 C 31.445312 373.558594 18.03125 374.214844 9.347656 366.367188 C 0.648438 358.519531 -0.0195312 345.105469 7.828125 336.429688 "/><path style=" stroke:none;fill-rule:nonzero;fill:#000000;fill-opacity:1;" d="M 168.363281 117.21875 L 194.367188 117.21875 L 194.367188 129.109375 L 168.363281 129.109375 Z M 168.363281 117.21875 "/><path style=" stroke:none;fill-rule:nonzero;fill:#000000;fill-opacity:1;" d="M 160.09375 113.554688 L 202.589844 113.554688 C 204.917969 113.554688 206.851562 111.671875 206.851562 109.296875 L 206.851562 100.28125 C 206.851562 97.953125 204.96875 96.019531 202.589844 96.019531 L 160.09375 96.019531 C 157.765625 96.019531 155.832031 97.902344 155.832031 100.28125 L 155.832031 109.34375 C 155.882812 111.671875 157.765625 113.554688 160.09375 113.554688 Z M 160.09375 113.554688 "/><path style=" stroke:none;fill-rule:nonzero;fill:#000000;fill-opacity:1;" d="M 211.902344 148.375 L 208.980469 139.707031 C 207.59375 135.546875 203.679688 132.773438 199.273438 132.773438 L 196.25 132.773438 C 196.25 132.773438 196.203125 132.773438 196.203125 132.773438 C 196.203125 132.773438 196.152344 132.773438 196.152344 132.773438 L 166.632812 132.773438 C 166.632812 132.773438 166.582031 132.773438 166.582031 132.773438 C 166.582031 132.773438 166.53125 132.773438 166.53125 132.773438 L 163.511719 132.773438 C 159.101562 132.773438 155.238281 135.546875 153.800781 139.707031 L 150.878906 148.375 C 149.9375 151.148438 149.445312 153.972656 149.34375 156.894531 L 213.4375 156.894531 C 213.339844 153.972656 212.792969 151.097656 211.902344 148.375 Z M 211.902344 148.375 "/><path style=" stroke:none;fill-rule:nonzero;fill:#000000;fill-opacity:1;" d="M 210.464844 239.414062 C 210.464844 244.269531 214.378906 248.179688 219.234375 248.179688 C 224.085938 248.179688 228 244.269531 228 239.414062 L 228 229.457031 L 210.464844 229.457031 Z M 210.464844 239.414062 "/><path style=" stroke:none;fill-rule:nonzero;fill:#000000;fill-opacity:1;" d="M 219.234375 207.121094 C 214.378906 207.121094 210.464844 211.03125 210.464844 215.886719 L 210.464844 225.84375 L 228 225.84375 L 228 215.886719 C 228 211.03125 224.085938 207.121094 219.234375 207.121094 Z M 219.234375 207.121094 "/><path style=" stroke:none;fill-rule:nonzero;fill:#000000;fill-opacity:1;" d="M 206.800781 225.496094 L 149.296875 225.496094 L 149.296875 248.179688 L 210.464844 248.179688 C 208.238281 245.953125 206.851562 242.832031 206.851562 239.414062 L 206.851562 225.496094 Z M 206.800781 225.496094 "/><path style=" stroke:none;fill-rule:nonzero;fill:#000000;fill-opacity:1;" d="M 206.800781 215.886719 C 206.800781 211.132812 209.476562 207.019531 213.386719 204.941406 L 213.386719 160.511719 L 149.296875 160.511719 L 149.296875 221.832031 L 206.851562 221.832031 L 206.851562 215.886719 Z M 205.414062 198.699219 C 205.414062 199.691406 204.570312 200.53125 203.582031 200.53125 L 190.011719 200.53125 L 190.011719 214.101562 C 190.011719 215.09375 189.167969 215.9375 188.175781 215.9375 L 174.507812 215.9375 C 173.515625 215.9375 172.675781 215.144531 172.675781 214.101562 L 172.675781 200.53125 L 159.101562 200.53125 C 158.113281 200.53125 157.269531 199.738281 157.269531 198.699219 L 157.269531 185.027344 C 157.269531 184.039062 158.0625 183.195312 159.101562 183.195312 L 172.675781 183.195312 L 172.675781 169.625 C 172.675781 168.632812 173.464844 167.792969 174.507812 167.792969 L 188.175781 167.792969 C 189.167969 167.792969 190.011719 168.632812 190.011719 169.625 L 190.011719 183.195312 L 203.582031 183.195312 C 204.570312 183.195312 205.414062 184.039062 205.414062 185.027344 Z M 205.414062 198.699219 "/><path style=" stroke:none;fill-rule:nonzero;fill:#000000;fill-opacity:1;" d="M 186.34375 185.078125 L 186.34375 171.507812 L 176.339844 171.507812 L 176.339844 185.078125 C 176.339844 186.070312 175.496094 186.910156 174.507812 186.910156 L 160.933594 186.910156 L 160.933594 196.867188 L 174.507812 196.867188 C 175.496094 196.867188 176.339844 197.707031 176.339844 198.699219 L 176.339844 212.269531 L 186.34375 212.269531 L 186.34375 198.699219 C 186.34375 197.707031 187.1875 196.867188 188.175781 196.867188 L 201.75 196.867188 L 201.75 186.859375 L 188.175781 186.859375 C 187.136719 186.859375 186.34375 186.070312 186.34375 185.078125 Z M 186.34375 185.078125 "/><path style=" stroke:none;fill-rule:nonzero;fill:#000000;fill-opacity:1;" d="M 249.101562 213.113281 C 247.464844 211.476562 245.238281 210.535156 242.910156 210.535156 C 240.582031 210.535156 238.351562 211.429688 236.71875 213.113281 L 231.664062 218.164062 L 231.664062 222.175781 L 242.066406 232.578125 L 249.101562 225.546875 C 250.734375 223.910156 251.675781 221.679688 251.675781 219.355469 C 251.625 216.976562 250.734375 214.796875 249.101562 213.113281 Z M 249.101562 213.113281 "/><path style=" stroke:none;fill-rule:nonzero;fill:#000000;fill-opacity:1;" d="M 231.664062 239.414062 C 231.664062 240.75 231.46875 242.089844 231.023438 243.328125 C 231.515625 242.980469 232.011719 242.632812 232.410156 242.1875 L 239.441406 235.152344 L 231.664062 227.328125 Z M 231.664062 239.414062 "/><g clip-rule="nonzero" clip-path="url(#291c0d8908)"><path style=" stroke:none;fill-rule:nonzero;fill:#000000;fill-opacity:1;" d="M 200.460938 290.976562 C 184.460938 290.976562 168.910156 287.804688 154.199219 281.613281 C 140.03125 275.621094 127.304688 267.050781 116.40625 256.15625 C 105.460938 245.160156 96.890625 232.480469 90.949219 218.363281 C 84.757812 203.75 81.585938 188.199219 81.585938 172.101562 C 81.585938 156.101562 84.757812 140.550781 90.949219 125.839844 C 96.988281 111.574219 105.558594 98.84375 116.40625 88.046875 C 127.402344 77.101562 140.082031 68.53125 154.199219 62.585938 C 168.808594 56.394531 184.363281 53.226562 200.460938 53.226562 C 216.460938 53.226562 232.011719 56.394531 246.722656 62.585938 C 260.890625 68.582031 273.617188 77.148438 284.515625 88.046875 C 295.460938 99.042969 304.03125 111.722656 309.972656 125.839844 C 316.164062 140.550781 319.335938 156.101562 319.335938 172.101562 C 319.335938 188.097656 316.164062 203.652344 309.972656 218.363281 C 303.980469 232.527344 295.414062 245.257812 284.515625 256.15625 C 273.519531 267.101562 260.839844 275.671875 246.722656 281.613281 C 232.113281 287.804688 216.558594 290.976562 200.460938 290.976562 Z M 200.410156 56.988281 C 136.960938 56.988281 85.300781 108.652344 85.300781 172.101562 C 85.300781 235.550781 136.914062 287.210938 200.410156 287.210938 C 263.910156 287.210938 315.523438 235.550781 315.523438 172.101562 C 315.523438 108.652344 263.859375 56.988281 200.410156 56.988281 Z M 200.410156 56.988281 "/></g></g></svg>